<svg width="108" height="18" fill="none" xmlns="http://www.w3.org/2000/svg"><path d="M.293 8.293a1 1 0 000 1.414l6.364 6.364a1 1 0 001.414-1.414L2.414 9l5.657-5.657A1 1 0 006.657 1.93L.293 8.293zM26 10a1 1 0 100-2v2zM1 10h25V8H1v2zm35.028.544V14H35.02V5.6h3c.432 0 .808.064 1.128.192.32.12.584.284.792.492.216.208.376.452.48.732.112.272.168.56.168.864v.36c0 .304-.056.596-.168.876-.104.28-.264.528-.48.744a2.46 2.46 0 01-.804.504c-.32.12-.692.18-1.116.18h-1.992zm0-.936H37.9c1.12 0 1.68-.48 1.68-1.44v-.216c0-.424-.14-.764-.42-1.02-.272-.264-.692-.396-1.26-.396h-1.872v3.072zm6.028-1.56h2.16v.792h.144c.152-.328.368-.568.648-.72.28-.16.6-.24.96-.24.6 0 1.084.196 1.452.588.368.392.564.964.588 1.716l-.984.144c0-.552-.132-.948-.396-1.188a1.366 1.366 0 00-.972-.372c-.248 0-.464.048-.648.144a1.313 1.313 0 00-.444.396c-.12.168-.208.364-.264.588a2.961 2.961 0 00-.084.72v2.52h1.512V14h-3.816v-.864h1.368V8.912h-1.224v-.864zm8.367 3.264c.024.592.208 1.068.552 1.428.344.36.824.54 1.44.54.28 0 .524-.032.732-.096.208-.064.384-.152.528-.264.152-.112.272-.24.36-.384.096-.152.172-.312.228-.48l.888.24a2.647 2.647 0 01-.936 1.356c-.448.344-1.056.516-1.824.516-.424 0-.816-.072-1.176-.216a2.716 2.716 0 01-.912-.636 2.928 2.928 0 01-.6-.972 3.464 3.464 0 01-.216-1.248v-.288c0-.416.072-.804.216-1.164.152-.36.36-.668.624-.924a2.962 2.962 0 012.088-.84c.488 0 .908.092 1.26.276.36.176.652.396.876.66.232.264.4.552.504.864.112.312.168.6.168.864v.768h-4.8zm1.992-2.544a2.08 2.08 0 00-.744.132c-.224.08-.424.196-.6.348a2 2 0 00-.42.54c-.104.2-.172.42-.204.66h3.84a1.669 1.669 0 00-.192-.696 1.595 1.595 0 00-.42-.528 1.85 1.85 0 00-.588-.336 1.92 1.92 0 00-.672-.12zm1.428-3.024L52.835 7.16h-.864l.792-1.416h1.08zm8.812 6.144a2.972 2.972 0 01-.336.912c-.152.28-.348.524-.588.732-.24.2-.52.356-.84.468-.32.112-.676.168-1.068.168-.416 0-.812-.068-1.188-.204a2.93 2.93 0 01-.972-.588 2.963 2.963 0 01-.672-.96 3.285 3.285 0 01-.24-1.296v-.144c0-.48.08-.912.24-1.296.168-.384.392-.708.672-.972a2.99 2.99 0 01.972-.612 3.293 3.293 0 011.188-.216c.376 0 .724.056 1.044.168.32.112.6.272.84.48.248.2.448.44.6.72.16.28.268.584.324.912l-.936.216a1.792 1.792 0 00-.18-.6 1.497 1.497 0 00-.372-.516 1.626 1.626 0 00-.564-.36 2.124 2.124 0 00-.78-.132c-.288 0-.56.056-.816.168a1.956 1.956 0 00-.66.456 2.104 2.104 0 00-.456.696 2.466 2.466 0 00-.156.888v.144c0 .336.052.64.156.912a1.999 1.999 0 001.128 1.104c.256.096.532.144.828.144.296 0 .552-.044.768-.132.224-.096.412-.216.564-.36.16-.152.284-.324.372-.516.096-.192.16-.392.192-.6l.936.216zm2.464-.576c.024.592.208 1.068.552 1.428.344.36.824.54 1.44.54.28 0 .524-.032.732-.096.208-.064.384-.152.528-.264.152-.112.272-.24.36-.384.096-.152.172-.312.228-.48l.888.24a2.647 2.647 0 01-.936 1.356c-.448.344-1.056.516-1.824.516-.424 0-.816-.072-1.176-.216a2.716 2.716 0 01-.912-.636 2.928 2.928 0 01-.6-.972 3.464 3.464 0 01-.216-1.248v-.288c0-.416.072-.804.216-1.164.152-.36.36-.668.624-.924a2.962 2.962 0 012.088-.84c.488 0 .908.092 1.26.276.36.176.652.396.876.66.232.264.4.552.504.864.112.312.168.6.168.864v.768h-4.8zm1.992-2.544a2.08 2.08 0 00-.744.132c-.224.08-.424.196-.6.348a2 2 0 00-.42.54c-.104.2-.172.42-.204.66h3.84a1.669 1.669 0 00-.192-.696 1.595 1.595 0 00-.42-.528 1.85 1.85 0 00-.588-.336 1.92 1.92 0 00-.672-.12zm1.428-3.024L67.53 7.16h-.864l.792-1.416h1.08zm7.851 7.344h-.144c-.096.184-.22.344-.372.48a1.995 1.995 0 01-.48.336 2.065 2.065 0 01-.54.192 2.275 2.275 0 01-.552.072c-.4 0-.772-.068-1.116-.204a2.749 2.749 0 01-.912-.588 2.81 2.81 0 01-.612-.948 3.707 3.707 0 01-.216-1.308v-.192c0-.48.076-.908.228-1.284.152-.384.356-.704.612-.96a2.54 2.54 0 01.9-.6 2.943 2.943 0 011.092-.204c.408 0 .788.092 1.14.276.36.176.636.452.828.828h.144V5.6h.936V14h-.936v-.912zm-1.992.192c.28 0 .54-.052.78-.156.24-.104.448-.252.624-.444.184-.192.328-.42.432-.684.104-.272.156-.572.156-.9v-.144c0-.32-.052-.612-.156-.876a2.05 2.05 0 00-.432-.696 1.79 1.79 0 00-.636-.444 1.794 1.794 0 00-.768-.168c-.28 0-.544.052-.792.156-.24.104-.452.252-.636.444-.176.192-.316.42-.42.684a2.547 2.547 0 00-.144.876v.192c0 .336.048.636.144.9.104.264.244.492.42.684.184.184.396.328.636.432.24.096.504.144.792.144zm5.416-1.968c.024.592.208 1.068.552 1.428.344.36.824.54 1.44.54.28 0 .524-.032.732-.096.208-.064.384-.152.528-.264.152-.112.272-.24.36-.384.096-.152.172-.312.228-.48l.888.24a2.647 2.647 0 01-.936 1.356c-.448.344-1.056.516-1.824.516-.424 0-.816-.072-1.176-.216a2.716 2.716 0 01-.912-.636 2.928 2.928 0 01-.6-.972 3.464 3.464 0 01-.216-1.248v-.288c0-.416.072-.804.216-1.164.152-.36.36-.668.624-.924a2.962 2.962 0 012.088-.84c.488 0 .908.092 1.26.276.36.176.652.396.876.66.232.264.4.552.504.864.112.312.168.6.168.864v.768h-4.8zm1.992-2.544a2.08 2.08 0 00-.744.132c-.224.08-.424.196-.6.348a2 2 0 00-.42.54c-.104.2-.172.42-.204.66h3.84a1.669 1.669 0 00-.192-.696 1.595 1.595 0 00-.42-.528 1.85 1.85 0 00-.588-.336 1.92 1.92 0 00-.672-.12zM87.414 14h-.936V8.048h.936v1.008h.144c.368-.784 1.008-1.176 1.92-1.176.688 0 1.236.216 1.644.648.408.424.612 1.064.612 1.92V14h-.936v-3.36c0-.624-.14-1.092-.42-1.404-.28-.312-.66-.468-1.14-.468-.568 0-1.016.196-1.344.588-.32.384-.48.9-.48 1.548V14zm6.207-5.952h1.872V5.6h.936v2.448h2.304v.864H96.43v3.864c0 .24.108.36.324.36h1.692V14h-2.028a.91.91 0 01-.672-.264.934.934 0 01-.252-.672V8.912h-1.872v-.864zm8.236 3.264c.024.592.208 1.068.552 1.428.344.36.824.54 1.44.54.28 0 .524-.032.732-.096.208-.064.384-.152.528-.264.152-.112.272-.24.36-.384.096-.152.172-.312.228-.48l.888.24a2.647 2.647 0 01-.936 1.356c-.448.344-1.056.516-1.824.516-.424 0-.816-.072-1.176-.216a2.716 2.716 0 01-.912-.636 2.928 2.928 0 01-.6-.972 3.464 3.464 0 01-.216-1.248v-.288c0-.416.072-.804.216-1.164.152-.36.36-.668.624-.924a2.962 2.962 0 012.088-.84c.488 0 .908.092 1.26.276.36.176.652.396.876.66.232.264.4.552.504.864.112.312.168.6.168.864v.768h-4.8zm1.992-2.544a2.08 2.08 0 00-.744.132c-.224.08-.424.196-.6.348a2 2 0 00-.42.54c-.104.2-.172.42-.204.66h3.84a1.669 1.669 0 00-.192-.696 1.595 1.595 0 00-.42-.528 1.85 1.85 0 00-.588-.336 1.92 1.92 0 00-.672-.12z" fill="#fff"/></svg>