<svg width="93" height="18" fill="none" xmlns="http://www.w3.org/2000/svg"><path d="M5.652 8.024c0-.272-.056-.512-.168-.72a1.424 1.424 0 00-.432-.516 2.051 2.051 0 00-.636-.312 2.617 2.617 0 00-.756-.108c-.232 0-.452.032-.66.096-.208.056-.396.14-.564.252-.16.112-.288.252-.384.42-.096.16-.144.348-.144.564v.072c0 .232.048.432.144.6.096.16.236.3.42.42.192.112.428.208.708.288.28.072.608.136.984.192.88.136 1.528.396 1.944.78.416.376.624.884.624 1.524v.144c0 .36-.064.692-.192.996-.12.296-.304.552-.552.768-.24.216-.54.384-.9.504s-.776.18-1.248.18a4.146 4.146 0 01-1.428-.228 3.066 3.066 0 01-1.032-.648 2.894 2.894 0 01-.624-.972 3.394 3.394 0 01-.216-1.224v-.36h1.008v.288c0 .736.2 1.288.6 1.656.408.368.972.552 1.692.552.624 0 1.092-.136 1.404-.408.32-.28.48-.648.48-1.104v-.072c0-.44-.164-.776-.492-1.008-.32-.232-.844-.4-1.572-.504a6.458 6.458 0 01-1.152-.252 3.15 3.15 0 01-.864-.456 1.97 1.97 0 01-.552-.684A2.125 2.125 0 01.9 7.808v-.144c0-.328.068-.628.204-.9.136-.272.324-.508.564-.708.248-.2.54-.352.876-.456.344-.112.72-.168 1.128-.168.472 0 .892.068 1.26.204.376.136.692.32.948.552.256.224.448.492.576.804.136.304.204.624.204.96v.504H5.652v-.432zm6.988.024h.936V14h-.936v-1.08h-.144a2.44 2.44 0 01-.756.912c-.312.224-.708.336-1.188.336-.328 0-.632-.056-.912-.168a1.857 1.857 0 01-.708-.48 2.374 2.374 0 01-.456-.804A3.615 3.615 0 018.32 11.6V8.048h.936v3.432c0 .624.128 1.08.384 1.368.256.288.648.432 1.176.432.568 0 1.012-.192 1.332-.576.328-.392.492-.912.492-1.56V8.048zm4.947-1.776a.8.8 0 01.24-.588.82.82 0 01.6-.252.78.78 0 01.588.252.78.78 0 01.252.588.82.82 0 01-.252.6.8.8 0 01-.588.24.84.84 0 01-.6-.24.84.84 0 01-.24-.6zm-1.704 6.864h2.088V8.912H16.1v-.864h2.808v5.088h1.944V14h-4.968v-.864zM26.627 14h-1.848l-2.076-5.952h1.104l1.824 5.52h.144l1.824-5.52h1.104L26.627 14zm8.128-1.008h-.144c-.192.4-.46.696-.804.888a2.12 2.12 0 01-1.068.288c-.392 0-.756-.064-1.092-.192a2.649 2.649 0 01-.888-.588 2.896 2.896 0 01-.588-.96c-.144-.376-.216-.812-.216-1.308v-.192c0-.488.072-.92.216-1.296.144-.376.34-.692.588-.948.256-.264.552-.464.888-.6a2.82 2.82 0 011.068-.204c.408 0 .776.092 1.104.276.336.176.6.452.792.828h.144v-.936h.936v4.728c0 .24.108.36.324.36h.3V14h-.636a.91.91 0 01-.672-.264.934.934 0 01-.252-.672v-.072zm-1.92.288c.28 0 .536-.052.768-.156a1.7 1.7 0 00.612-.444c.168-.192.3-.42.396-.684.096-.272.144-.572.144-.9v-.144c0-.32-.048-.612-.144-.876a2.001 2.001 0 00-.408-.696 1.7 1.7 0 00-.612-.444 1.716 1.716 0 00-.756-.168c-.28 0-.536.052-.768.156a1.85 1.85 0 00-1.008 1.128 2.547 2.547 0 00-.144.876v.192c0 .68.176 1.212.528 1.596.36.376.824.564 1.392.564zm5.883.72h-.936V8.048h.936v1.008h.144c.368-.784 1.008-1.176 1.92-1.176.688 0 1.236.216 1.644.648.408.424.612 1.064.612 1.92V14h-.936v-3.36c0-.624-.14-1.092-.42-1.404-.28-.312-.66-.468-1.14-.468-.568 0-1.016.196-1.344.588-.32.384-.48.9-.48 1.548V14zm6.208-5.952h1.872V5.6h.936v2.448h2.304v.864h-2.304v3.864c0 .24.108.36.324.36h1.692V14h-2.028a.91.91 0 01-.672-.264.934.934 0 01-.252-.672V8.912h-1.872v-.864zm8.236 3.264c.024.592.208 1.068.552 1.428.344.36.824.54 1.44.54.28 0 .524-.032.732-.096.208-.064.384-.152.528-.264.152-.112.272-.24.36-.384.096-.152.172-.312.228-.48l.888.24a2.647 2.647 0 01-.936 1.356c-.448.344-1.056.516-1.824.516-.424 0-.816-.072-1.176-.216a2.716 2.716 0 01-.912-.636 2.928 2.928 0 01-.6-.972 3.464 3.464 0 01-.216-1.248v-.288c0-.416.072-.804.216-1.164.152-.36.36-.668.624-.924a2.962 2.962 0 012.088-.84c.488 0 .908.092 1.26.276.36.176.652.396.876.66.232.264.4.552.504.864.112.312.168.6.168.864v.768h-4.8zm1.992-2.544a2.08 2.08 0 00-.744.132c-.224.08-.424.196-.6.348a2 2 0 00-.42.54c-.104.2-.172.42-.204.66h3.84a1.669 1.669 0 00-.192-.696 1.595 1.595 0 00-.42-.528 1.85 1.85 0 00-.588-.336 1.92 1.92 0 00-.672-.12zm37.553-.475a1 1 0 010 1.414l-6.364 6.364a1 1 0 01-1.414-1.414L90.586 9l-5.657-5.657a1 1 0 011.414-1.414l6.364 6.364zM67 10a1 1 0 110-2v2zm25 0H67V8h25v2z" fill="#fff"/></svg>